<svg xmlns="http://www.w3.org/2000/svg" style="display: none;">
  <symbol id="icon-x" viewBox="0 0 24 24">
    <path d="M18 6L6 18M6 6l12 12" stroke="#00fff2" stroke-width="2" stroke-linecap="round" fill="none"/>
  </symbol>
  
  <symbol id="icon-o" viewBox="0 0 24 24">
    <circle cx="12" cy="12" r="8" stroke="#ff00d4" stroke-width="2" fill="none"/>
  </symbol>
  
  <symbol id="icon-ties" viewBox="0 0 24 24">
    <path d="M12 3v18M3 12h18" stroke="#b4fffa" stroke-width="2" stroke-linecap="round" fill="none"/>
  </symbol>

  <symbol id="icon-next-round" viewBox="0 0 24 24">
    <path d="M12 4V2.21c0-.45-.54-.67-.85-.35l-2.8 2.79c-.2.2-.2.51 0 .71l2.8 2.79c.31.32.85.09.85-.35V6c3.31 0 6 2.69 6 6 0 .79-.15 1.56-.44 2.25-.15.36-.04.77.23 1.04.51.51 1.37.33 1.64-.34.37-.91.57-1.91.57-2.95 0-4.42-3.58-8-8-8zm0 14c-3.31 0-6-2.69-6-6 0-.79.15-1.56.44-2.25.15-.36.04-.77-.23-1.04-.51-.51-1.37-.33-1.64.34C4.2 9.96 4 10.96 4 12c0 4.42 3.58 8 8 8v1.79c0 .45.54.67.85.35l2.8-2.79c.2-.2.2-.51 0-.71l-2.8-2.79c-.31-.32-.85-.09-.85.35V18z" fill="#00fff2"/>
  </symbol>
</svg>